<mxfile host="Electron" agent="Mozilla/5.0 (Windows NT 10.0; Win64; x64) AppleWebKit/537.36 (KHTML, like Gecko) draw.io/24.7.8 Chrome/128.0.6613.36 Electron/32.0.1 Safari/537.36" version="24.7.8">
  <diagram name="Page-1" id="CkbVXgVpmT0_TNazOzKA">
    <mxGraphModel dx="1018" dy="759" grid="1" gridSize="10" guides="1" tooltips="1" connect="1" arrows="1" fold="1" page="1" pageScale="1" pageWidth="850" pageHeight="1100" math="0" shadow="0">
      <root>
        <mxCell id="0" />
        <mxCell id="1" parent="0" />
        <mxCell id="-lLxt2zhQgCRx_qzzvKV-53" value="" style="fillColor=#647687;rounded=0;strokeColor=none;fontColor=#ffffff;" parent="1" vertex="1">
          <mxGeometry x="5" y="160" width="685" height="30" as="geometry" />
        </mxCell>
        <mxCell id="-lLxt2zhQgCRx_qzzvKV-54" value="STEP 1" style="shape=mxgraph.infographic.ribbonSimple;notch1=0;notch2=10;notch=0;fillColor=#dae8fc;strokeColor=#6c8ebf;shadow=0;fontSize=17;align=left;spacingLeft=10;fontStyle=1;whiteSpace=wrap;" parent="1" vertex="1">
          <mxGeometry x="45" y="150" width="120" height="50" as="geometry" />
        </mxCell>
        <mxCell id="-lLxt2zhQgCRx_qzzvKV-55" value="STEP 2" style="shape=mxgraph.infographic.ribbonSimple;notch1=0;notch2=10;notch=0;fillColor=#bac8d3;strokeColor=#23445d;shadow=0;fontSize=17;align=left;spacingLeft=10;fontStyle=1;whiteSpace=wrap;" parent="1" vertex="1">
          <mxGeometry x="240" y="150" width="120" height="50" as="geometry" />
        </mxCell>
        <mxCell id="-lLxt2zhQgCRx_qzzvKV-56" value="STEP 3" style="shape=mxgraph.infographic.ribbonSimple;notch1=0;notch2=10;notch=0;fillColor=#b0e3e6;strokeColor=#0e8088;shadow=0;fontSize=17;align=left;spacingLeft=10;fontStyle=1;whiteSpace=wrap;" parent="1" vertex="1">
          <mxGeometry x="440" y="150" width="120" height="50" as="geometry" />
        </mxCell>
        <mxCell id="-lLxt2zhQgCRx_qzzvKV-68" value="Extraction and&#xa;Expression of &#xa;Retrievable Elements" style="text;whiteSpace=wrap;fontStyle=1;align=center;fontSize=14;" parent="1" vertex="1">
          <mxGeometry x="207" y="87" width="170" height="60" as="geometry" />
        </mxCell>
        <mxCell id="-lLxt2zhQgCRx_qzzvKV-69" value="Topic &#xa;Indetification" style="text;whiteSpace=wrap;fontStyle=1;align=center;fontSize=14;" parent="1" vertex="1">
          <mxGeometry x="45" y="95" width="120" height="60" as="geometry" />
        </mxCell>
        <mxCell id="-lLxt2zhQgCRx_qzzvKV-70" value="Construction of&#xa;Search Queries" style="text;whiteSpace=wrap;fontStyle=1;align=center;fontSize=14;" parent="1" vertex="1">
          <mxGeometry x="423" y="95" width="140" height="60" as="geometry" />
        </mxCell>
        <mxCell id="-lLxt2zhQgCRx_qzzvKV-71" value="Start&#xa;Retrieval" style="text;whiteSpace=wrap;fontStyle=1;align=center;fontSize=14;" parent="1" vertex="1">
          <mxGeometry x="720" y="245" width="140" height="60" as="geometry" />
        </mxCell>
        <mxCell id="-lLxt2zhQgCRx_qzzvKV-72" value="" style="fillColor=#647687;rounded=0;strokeColor=none;direction=south;fontColor=#ffffff;" parent="1" vertex="1">
          <mxGeometry x="665" y="160" width="30" height="220" as="geometry" />
        </mxCell>
        <mxCell id="-lLxt2zhQgCRx_qzzvKV-73" value="" style="fillColor=#647687;rounded=0;strokeColor=none;direction=west;fontColor=#ffffff;" parent="1" vertex="1">
          <mxGeometry x="285" y="350" width="400" height="30" as="geometry" />
        </mxCell>
        <mxCell id="-lLxt2zhQgCRx_qzzvKV-57" value="STEP 4" style="shape=mxgraph.infographic.ribbonSimple;notch1=0;notch2=10;notch=0;fillColor=#d5e8d4;strokeColor=#82b366;shadow=0;fontSize=17;align=left;spacingLeft=10;fontStyle=1;whiteSpace=wrap;" parent="1" vertex="1">
          <mxGeometry x="630" y="240" width="120" height="50" as="geometry" />
        </mxCell>
        <mxCell id="-lLxt2zhQgCRx_qzzvKV-77" value="" style="fillColor=#647687;rounded=0;strokeColor=none;direction=north;fontColor=#ffffff;" parent="1" vertex="1">
          <mxGeometry x="483" y="225" width="30" height="135" as="geometry" />
        </mxCell>
        <mxCell id="-lLxt2zhQgCRx_qzzvKV-76" value="" style="triangle;whiteSpace=wrap;direction=north;labelBackgroundColor=none;textShadow=0;labelBorderColor=none;fillColor=#647687;strokeColor=none;fontColor=#ffffff;" parent="1" vertex="1">
          <mxGeometry x="458" y="200" width="80" height="60" as="geometry" />
        </mxCell>
        <mxCell id="-lLxt2zhQgCRx_qzzvKV-78" value="" style="fillColor=#647687;rounded=0;strokeColor=none;direction=north;fontColor=#ffffff;" parent="1" vertex="1">
          <mxGeometry x="285" y="225" width="30" height="155" as="geometry" />
        </mxCell>
        <mxCell id="-lLxt2zhQgCRx_qzzvKV-80" value="Adjustment" style="text;whiteSpace=wrap;fontStyle=1;align=center;fontSize=13;" parent="1" vertex="1">
          <mxGeometry x="425" y="390" width="140" height="60" as="geometry" />
        </mxCell>
        <mxCell id="-lLxt2zhQgCRx_qzzvKV-82" value="" style="triangle;whiteSpace=wrap;direction=north;labelBackgroundColor=none;textShadow=0;labelBorderColor=none;fillColor=#647687;strokeColor=none;fontColor=#ffffff;" parent="1" vertex="1">
          <mxGeometry x="260" y="200" width="80" height="60" as="geometry" />
        </mxCell>
      </root>
    </mxGraphModel>
  </diagram>
</mxfile>
